<?xml version="1.0" encoding="UTF-8" standalone="no"?>
<!DOCTYPE svg PUBLIC "-//W3C//DTD SVG 1.1//EN" "http://www.w3.org/Graphics/SVG/1.1/DTD/svg11.dtd">
<svg width="100%" height="100%" viewBox="0 0 2797 2799" version="1.1" xmlns="http://www.w3.org/2000/svg" xmlns:xlink="http://www.w3.org/1999/xlink" xml:space="preserve" xmlns:serif="http://www.serif.com/" style="fill-rule:evenodd;clip-rule:evenodd;stroke-linejoin:round;stroke-miterlimit:2;">
    <g>
        <path d="M1090.8,2.1C1085,3 1057.8,10.5 1030.4,18.4C823.7,78.8 646.6,172.5 490.8,303.8C435.8,350 330.4,456.3 290.4,505.5C210.8,603.4 133.4,730.9 84.6,845C48.7,928.4 5.8,1061.3 0.8,1103.8C-6.7,1168.4 35.4,1243 95.4,1270.8C107.9,1277.1 377.9,1361.8 695,1459.6C1307.5,1648 1309.1,1648.4 1352,1636.7C1399.6,1623.8 1417.5,1610.5 1508.7,1520.5C1602.9,1428 1623.3,1400.5 1636.7,1352.1C1648.3,1309.2 1647.9,1307.5 1459.6,695.1C1361.6,378 1277,108 1270.8,95.4C1240.4,30.9 1161.6,-10 1090.8,2L1090.8,2.1Z" style="fill:rgb(223,91,83);fill-rule:nonzero;"/>
        <path d="M1603.3,1.7C1567.5,4.2 1513.3,11.3 1469.1,18.7L1429.1,25.9L1436.6,40.9C1442.5,52.5 1677.1,796.3 1783.7,1140.9C1795.4,1178.8 1805.4,1210 1805.8,1210.9C1808.8,1215.5 1850.8,1189.2 1870.4,1170.5C1891.6,1150 2352.4,563.4 2410.4,483.4C2454.1,422.5 2460.4,361.7 2428.7,300C2414.6,272.1 2393.3,251.3 2345.4,218.4C2177.4,102.5 2000.4,34.2 1807.4,10C1753.7,3.8 1643.7,-0.8 1603.4,1.7L1603.3,1.7Z" style="fill:rgb(223,91,83);fill-opacity:0.6;fill-rule:nonzero;"/>
        <path d="M2497,666.3C2469.6,701.3 2374.6,821.7 2285.8,934.3C2197.1,1046.7 2125.8,1139.6 2127.5,1141.3C2129.1,1142.5 2238.3,1162.1 2370,1184.6C2602.5,1224.6 2610,1225.5 2642.9,1221.3C2706.2,1213.8 2748.3,1183.3 2776.6,1126.3C2810.8,1057.1 2802.5,1005.9 2735.8,872.5C2695,790 2626.6,689.6 2569.1,627.1L2547.1,603L2497.1,666.3L2497,666.3Z" style="fill:rgb(223,91,83);fill-rule:nonzero;"/>
        <path d="M18.7,1479.2C1.2,1584.2 -2.5,1714.6 9.1,1801.2C36.2,2003.4 105.8,2184.2 217.1,2345C249.1,2391.3 270.4,2412.5 298.7,2427.5C364.1,2462.1 426.7,2454.6 492.1,2404.6C715.8,2233 1152.5,1888.8 1170.4,1870.5C1197.9,1841.7 1215,1809.2 1206.6,1801.3C1203.7,1798.3 1128.3,1774.3 1038.7,1747.1C309.1,1527.5 64.6,1453 50,1445.5C40.4,1440.5 31.2,1436.7 29.1,1436.7C27.5,1436.7 22.5,1455.9 18.7,1479.2Z" style="fill:rgb(223,91,83);fill-opacity:0.6;fill-rule:nonzero;"/>
        <path d="M870.8,2335.9L602.8,2547.1L627.1,2569.2C711.6,2647.2 834.6,2723.8 955,2773.8C1010,2796.8 1037,2802.1 1072.9,2796.3C1113.3,2790 1138.7,2776.7 1170.4,2745.5C1207.4,2708 1223.7,2670.9 1224.1,2622.1C1224.1,2601.3 1145.8,2133 1141.2,2127.5C1140,2125.9 1018.3,2219.6 870.8,2335.9Z" style="fill:rgb(223,91,83);fill-rule:nonzero;"/>
    </g>
</svg>
