<?xml version="1.0" encoding="UTF-8" standalone="no"?>
<!DOCTYPE svg PUBLIC "-//W3C//DTD SVG 1.1//EN" "http://www.w3.org/Graphics/SVG/1.1/DTD/svg11.dtd">
<svg width="100%" height="100%" viewBox="0 0 256 256" version="1.1" xmlns="http://www.w3.org/2000/svg" xmlns:xlink="http://www.w3.org/1999/xlink" xml:space="preserve" xmlns:serif="http://www.serif.com/" style="fill-rule:evenodd;clip-rule:evenodd;stroke-linejoin:round;stroke-miterlimit:2;">
    <path d="M154.667,213.441L154.667,218.65C154.667,226.023 148.697,232 141.333,232C139.044,232 136.792,231.41 134.797,230.286L54.797,185.229C50.598,182.865 48,178.417 48,173.594L48,82.409C48,77.586 50.598,73.138 54.797,70.773L134.797,25.717C141.215,22.102 149.344,24.381 152.954,30.807C154.077,32.806 154.667,35.06 154.667,37.352L154.667,42.561L164.169,39.707C171.222,37.588 178.655,41.596 180.771,48.658C181.144,49.902 181.333,51.195 181.333,52.494L181.333,57.914L193.013,56.452C200.32,55.537 206.984,60.727 207.897,68.043C207.966,68.592 208,69.145 208,69.699L208,186.304C208,193.677 202.03,199.654 194.667,199.654C194.114,199.654 193.561,199.619 193.013,199.551L181.333,198.089L181.333,203.509C181.333,210.882 175.364,216.859 168,216.859C166.702,216.859 165.412,216.669 164.169,216.296L154.667,213.441Z"/>
    <path d="M61.333,82.409L61.333,173.594L141.333,218.65L141.333,37.352L61.333,82.409Z" style="fill:rgb(230,230,230);"/>
    <path d="M74.667,91.289L88,84.614L88,171.389L74.667,164.714L74.667,91.289Z"/>
    <path d="M154.667,199.504L168,203.509L168,52.494L154.667,56.499L154.667,199.504Z" style="fill:rgb(230,230,230);"/>
    <path d="M181.333,71.367L181.333,184.635L194.667,186.304L194.667,69.699L181.333,71.367Z" style="fill:rgb(230,230,230);"/>
</svg>
